<svg xmlns="http://www.w3.org/2000/svg"  viewBox="0 0 64 64" width="512px" height="512px"><linearGradient id="HKjtCROQfa3tWHNNAhYsfa" x1="31.937" x2="31.852" y1="46.902" y2="54.816" gradientUnits="userSpaceOnUse"><stop offset="0" stop-color="#6dc7ff"/><stop offset="1" stop-color="#e6abff"/></linearGradient><path fill="url(#HKjtCROQfa3tWHNNAhYsfa)" d="M44.043,56H19.957C13.354,56,8,50.646,8,44.043V38c0.295,2.6,1.171,6.292,4,9 c2.856,2.734,5.938,2.777,21,3c12.687,0.188,15.253,0.228,18-2c3.494-2.834,4.602-7.166,5-10v6.043C56,50.646,50.646,56,44.043,56z"/><linearGradient id="HKjtCROQfa3tWHNNAhYsfb" x1="43" x2="43" y1="15.638" y2="45.083" gradientUnits="userSpaceOnUse"><stop offset="0" stop-color="#6dc7ff"/><stop offset="1" stop-color="#e6abff"/></linearGradient><path fill="url(#HKjtCROQfa3tWHNNAhYsfb)" d="M43,37c-1.657,0-3,1.343-3,3s1.343,3,3,3s3-1.343,3-3S44.657,37,43,37z"/><linearGradient id="HKjtCROQfa3tWHNNAhYsfc" x1="32" x2="32" y1="15.638" y2="45.083" gradientUnits="userSpaceOnUse"><stop offset="0" stop-color="#6dc7ff"/><stop offset="1" stop-color="#e6abff"/></linearGradient><path fill="url(#HKjtCROQfa3tWHNNAhYsfc)" d="M32,42c-7.168,0-13-5.832-13-13s5.832-13,13-13s13,5.832,13,13 c0,1.261-0.181,2.51-0.538,3.712c-0.393,1.323-1.784,2.078-3.108,1.685c-1.323-0.394-2.078-1.785-1.685-3.108 C39.889,30.549,40,29.778,40,29c0-4.411-3.589-8-8-8s-8,3.589-8,8s3.589,8,8,8c0.778,0,1.549-0.111,2.288-0.331 c1.326-0.391,2.716,0.361,3.108,1.685c0.394,1.323-0.361,2.715-1.685,3.108C34.51,41.819,33.261,42,32,42z"/><linearGradient id="HKjtCROQfa3tWHNNAhYsfd" x1="32" x2="32" y1="6.872" y2="56.729" gradientUnits="userSpaceOnUse"><stop offset="0" stop-color="#1a6dff"/><stop offset="1" stop-color="#c822ff"/></linearGradient><path fill="url(#HKjtCROQfa3tWHNNAhYsfd)" d="M44,7H20C12.832,7,7,12.832,7,20v10v7.952V44c0,7.168,5.832,13,13,13h24 c7.168,0,13-5.832,13-13v-6.048V31V20C57,12.832,51.168,7,44,7z M9.048,44.94c2.141,3.358,5.768,5.672,9.952,6.007v4.002 C13.712,54.47,9.499,50.235,9.048,44.94z M43,55H33v-4h10V55z M31,55H21v-4h10V55z M45,54.949v-4.002 c4.184-0.335,7.811-2.649,9.952-6.007C54.501,50.235,50.288,54.47,45,54.949z M55,37.952C55,44.044,50.044,49,43.952,49H20.048 C13.956,49,9,44.044,9,37.952V30V20c0-6.065,4.935-11,11-11h24c6.065,0,11,4.935,11,11v11V37.952z"/></svg>